<svg width="705" height="638" viewBox="0 0 705 638" fill="none" xmlns="http://www.w3.org/2000/svg">
<path d="M11.0107 406.288H674.392C729.379 371.549 701.081 267.015 655.154 245.826C605.716 223.015 684.22 144.127 608.063 118.522C558.341 101.803 490.951 120.48 458.034 84.489C419.358 42.2023 355.112 -9.26898 235.456 30.728C143.168 61.5735 193.295 121.044 42.2775 138.949C-35.3766 148.156 -20.3704 226.931 -13.1311 243.21C-6.82381 257.387 34.8975 279.876 -23.0873 310.847C-108.113 356.26 9.00595 405.451 11.0107 406.288Z" fill="#FFFBF3"/>
<path d="M211.295 261.854C211.295 261.854 296.381 145.972 346.984 146.344C397.588 146.716 452.714 222.673 524.727 287.542C605.429 360.239 500.051 363.291 493.969 363.89C487.888 364.489 278.059 356.519 274.561 352.597C271.062 348.672 215.037 298.409 215.037 298.409L211.295 261.854Z" fill="#FFE3B0"/>
<path d="M167.227 238.54C239.871 254.802 348.87 400.928 431.891 400.928C514.912 400.928 532.788 365.977 563.921 373.367C595.054 380.757 636.849 400.928 636.849 400.928L19.9167 403.381C19.9167 403.381 94.5837 222.279 167.227 238.54Z" fill="#D6C5A7"/>
<path d="M496.491 238.54C423.848 254.802 314.849 400.928 231.827 400.928C148.806 400.928 130.93 365.977 99.7974 373.367C68.6644 380.757 26.8694 400.928 26.8694 400.928L643.802 403.381C643.805 403.381 569.135 222.279 496.491 238.54Z" fill="#E3EEFF"/>
<path d="M19.9167 403.38C19.9167 403.38 99.5628 310.311 202.257 304.595C236.742 302.675 377.947 341.166 496.855 371.406C501.854 372.677 512.66 385.123 517.722 386.403C574.014 400.638 626.474 403.645 643.441 404.566L19.9167 403.38Z" fill="#E3FFF8"/>
<path d="M670.011 406.669C670.011 406.669 639.054 354.423 619.574 346.412C600.095 338.398 618.454 370.224 618.454 370.224C618.454 370.224 583.896 322.212 571.217 326.541C559.593 330.51 571.217 360.268 571.217 360.268C571.217 360.268 558.124 343.789 542.248 343.789C526.369 343.789 554.52 405.496 554.52 405.496L670.011 406.669Z" fill="#FFFBF3"/>
<path opacity="0.5" d="M339.392 38.3301C337.879 31.2492 331.985 25.9654 324.939 25.9654C323.646 25.9654 322.391 26.1451 321.194 26.4792C317.716 18.4841 310.168 12.9417 301.415 12.9417C299.152 12.9417 296.97 13.3106 294.917 13.9978C290.205 5.60859 281.645 0 271.866 0C260.23 0 250.322 7.93841 246.565 19.0516C243.909 17.4595 240.847 16.5483 237.589 16.5483C227.391 16.5483 219.124 25.4357 219.124 36.4007C219.124 37.0501 219.157 37.6933 219.212 38.327H339.392V38.3301Z" fill="white"/>
<path opacity="0.5" d="M503.224 162.186C503.954 158.775 506.793 156.23 510.185 156.23C510.81 156.23 511.411 156.316 511.989 156.476C513.663 152.627 517.299 149.957 521.513 149.957C522.604 149.957 523.654 150.136 524.642 150.467C526.912 146.429 531.032 143.727 535.741 143.727C541.345 143.727 546.116 147.551 547.925 152.901C549.204 152.135 550.678 151.694 552.247 151.694C557.159 151.694 561.138 155.975 561.138 161.253C561.138 161.565 561.124 161.874 561.097 162.179H503.224V162.186Z" fill="white"/>
<path opacity="0.5" d="M401.617 117.825C400.723 113.635 397.234 110.507 393.064 110.507C392.298 110.507 391.556 110.615 390.847 110.81C388.788 106.078 384.322 102.799 379.144 102.799C377.804 102.799 376.513 103.017 375.299 103.426C372.511 98.461 367.447 95.1444 361.658 95.1444C354.773 95.1444 348.908 99.8419 346.685 106.421C345.114 105.479 343.301 104.94 341.372 104.94C335.337 104.94 330.443 110.198 330.443 116.69C330.443 117.074 330.461 117.456 330.496 117.831H401.617V117.825Z" fill="white"/>
<path opacity="0.5" d="M540.163 68.5958C538.952 62.9367 534.242 58.7122 528.609 58.7122C527.574 58.7122 526.571 58.854 525.615 59.122C522.835 52.7316 516.804 48.3052 509.81 48.3052C508.001 48.3052 506.259 48.6016 504.617 49.1501C500.851 42.4476 494.01 37.9645 486.193 37.9645C476.894 37.9645 468.974 44.3108 465.974 53.1919C463.851 51.9182 461.405 51.1899 458.798 51.1899C450.649 51.1899 444.04 58.2929 444.04 67.0573C444.04 67.5775 444.063 68.0914 444.11 68.5958H540.163V68.5958Z" fill="white"/>
<path opacity="0.5" d="M152.694 137.724C153.299 134.903 155.647 132.797 158.454 132.797C158.97 132.797 159.468 132.869 159.946 133.001C161.333 129.817 164.339 127.607 167.825 127.607C168.726 127.607 169.597 127.755 170.415 128.03C172.291 124.688 175.702 122.453 179.599 122.453C184.235 122.453 188.182 125.615 189.677 130.044C190.736 129.411 191.956 129.048 193.255 129.048C197.319 129.048 200.612 132.588 200.612 136.958C200.612 137.217 200.601 137.472 200.577 137.724H152.694Z" fill="white"/>
<path d="M330.949 226.745V225.339H326.498V226.745H330.949Z" fill="#EEAA2B"/>
<path d="M335.885 258.635V225.201C335.885 222.991 334.22 221.2 332.164 221.2H325.69C323.634 221.2 321.968 222.991 321.968 225.201V258.638C321.968 260.848 323.634 262.639 325.69 262.639H332.164C334.22 262.636 335.885 260.845 335.885 258.635Z" fill="#F47458"/>
<path d="M328.927 262.636H332.66C334.44 262.636 335.885 261.791 335.885 260.747V223.089C335.885 222.045 334.874 221.2 333.091 221.2H328.927V262.636Z" fill="#B75742"/>
<path d="M329.546 246.183V236.529H327.901V246.183H329.546Z" fill="#666666"/>
<path d="M349.143 258.578V234.249C349.143 232.008 347.453 230.192 345.369 230.192H338.999C336.915 230.192 335.225 232.008 335.225 234.249V258.578C335.225 260.82 336.915 262.636 338.999 262.636H345.369C347.451 262.636 349.143 260.82 349.143 258.578Z" fill="#355389"/>
<path d="M342.184 262.636H345.917C347.697 262.636 349.143 261.974 349.143 261.157V231.667C349.143 230.851 347.7 230.189 345.917 230.189H342.184V262.636Z" fill="#5184CE"/>
<path d="M344.207 234.534V233.431H339.756V234.534H344.207Z" fill="#EEAA2B"/>
<path d="M342.804 249.754V242.194H341.159V249.754H342.804Z" fill="#666666"/>
<path d="M276.33 263.169H275.663V270.448H276.33V263.169Z" fill="#3793D8"/>
<path d="M356.953 263.169H356.286V270.448H356.953V263.169Z" fill="#3793D8"/>
<path d="M327.859 247.667H281.894C279.639 247.667 277.813 249.631 277.813 252.056V258.241C277.813 260.666 279.639 262.63 281.894 262.63H327.859C330.114 262.63 331.941 260.666 331.941 258.241V252.056C331.941 249.631 330.114 247.667 327.859 247.667Z" fill="#B75742"/>
<path d="M331.941 255.148V251.135C331.941 249.221 330.836 247.667 329.475 247.667H280.276C278.915 247.667 277.81 249.218 277.81 251.135V255.148H331.941Z" fill="#91342A"/>
<path d="M286.525 252.973H284.686V257.759H286.525V252.973Z" fill="#EEAA2B"/>
<path d="M325.068 252.973H323.229V257.759H325.068V252.973Z" fill="#EEAA2B"/>
<path d="M310.447 254.48H297.835V256.249H310.447V254.48Z" fill="#666666"/>
<path d="M319.766 232.705H289.988C287.569 232.705 285.607 234.814 285.607 237.415V242.954C285.607 245.555 287.569 247.664 289.988 247.664H319.766C322.185 247.664 324.147 245.555 324.147 242.954V237.415C324.147 234.814 322.185 232.705 319.766 232.705Z" fill="#4E9B87"/>
<path d="M324.147 240.186V236.173C324.147 234.259 323.361 232.705 322.391 232.705H287.361C286.39 232.705 285.604 234.256 285.604 236.173V240.186H324.147Z" fill="#3C8F7C"/>
<path d="M290.762 238.01H289.454V242.796H290.762V238.01Z" fill="#EEAA2B"/>
<path d="M354.007 262.617L322.121 262.598L321.608 247.327H354.007C357.934 247.327 361.118 250.75 361.118 254.972C361.121 259.193 357.937 262.617 354.007 262.617Z" fill="#FAE0B2"/>
<path d="M328.927 254.969C328.927 259.19 325.994 262.614 322.376 262.614C318.757 262.614 315.825 259.19 315.825 254.969C315.825 250.747 318.757 247.324 322.376 247.324C325.994 247.324 328.927 250.747 328.927 254.969Z" fill="#EEAA2B"/>
<path d="M335.683 263.333L335.677 263.326C335.384 263.081 335.325 262.633 335.539 262.305C337.697 259.026 338.299 255.536 337.325 251.923C336.782 249.912 335.871 248.38 335.357 247.62C335.149 247.314 335.193 246.885 335.457 246.633L335.466 246.627C335.771 246.337 336.24 246.39 336.48 246.743C337.058 247.595 338.038 249.25 338.642 251.447C339.422 254.294 339.68 258.588 336.671 263.166C336.442 263.516 335.994 263.591 335.683 263.333Z" fill="#F47458"/>
<path d="M347.336 263.333L347.33 263.326C347.037 263.081 346.978 262.633 347.195 262.305C349.354 259.026 349.955 255.536 348.981 251.923C348.439 249.912 347.527 248.38 347.013 247.62C346.805 247.314 346.849 246.885 347.113 246.633L347.122 246.627C347.427 246.337 347.896 246.39 348.137 246.743C348.714 247.595 349.694 249.25 350.298 251.447C351.078 254.294 351.336 258.588 348.327 263.166C348.098 263.516 347.65 263.591 347.336 263.333Z" fill="#F47458"/>
<path d="M327.795 253.604C327.446 251.195 326.235 249.981 325.282 249.385C323.862 248.503 322.038 248.376 320.399 249.054C318.842 249.697 317.599 251.16 317.153 252.875C316.757 254.401 317.051 255.952 317.98 257.242C319.543 259.411 321.939 259.067 323.109 258.525C324.17 258.033 324.965 256.863 325.138 255.549C325.276 254.486 324.83 253.459 323.971 252.869C323.106 252.276 322.047 252.27 321.2 252.856C320.584 253.282 319.974 254.127 320.552 255.719L321.021 255.524C320.651 254.502 320.798 253.78 321.473 253.31C322.15 252.841 323.003 252.844 323.698 253.323C324.39 253.796 324.748 254.622 324.639 255.473C324.493 256.605 323.813 257.607 322.909 258.027C321.871 258.509 319.751 258.815 318.379 256.911C317.314 255.432 317.388 253.979 317.637 253.02C318.036 251.491 319.188 250.133 320.578 249.559C322.074 248.941 323.739 249.051 325.027 249.855C326.258 250.621 327.044 251.948 327.296 253.689C327.625 255.955 327.229 257.762 326.123 259.061C324.044 261.498 319.637 261.463 318.88 261.438C319.156 261.64 319.443 261.819 319.742 261.974C319.754 261.974 319.769 261.974 319.781 261.974C321.121 261.974 324.525 261.731 326.493 259.43C327.71 258.002 328.147 256.044 327.795 253.604Z" fill="#F47458"/>
<path d="M319.25 238.01H317.942V242.796H319.25V238.01Z" fill="#EEAA2B"/>
<path d="M308.843 239.517H299.864V241.286H308.843V239.517Z" fill="#666666"/>
<path d="M296.992 232.064L281.835 262.961L282.268 263.206L297.425 232.309L296.992 232.064Z" fill="#666666"/>
<path d="M314.012 231.841L313.578 232.086L329.146 263.769L329.579 263.524L314.012 231.841Z" fill="#666666"/>
<path d="M346.037 229.761L345.583 229.959L358.198 263.194L358.652 262.996L346.037 229.761Z" fill="#666666"/>
<path d="M330.938 220.903L330.476 221.078L344.308 263.173L344.77 262.998L330.938 220.903Z" fill="#666666"/>
<path d="M360.057 262.594H272.693V263.581H360.057V262.594Z" fill="#3793D8"/>
<path d="M211.295 367.733C211.295 367.733 277.96 379.628 278.757 379.111C279.558 378.594 288.191 338.549 288.191 338.549C288.191 338.549 233.065 327.893 232.171 327.893C231.279 327.893 219.289 338.205 219.127 338.893C218.966 339.58 211.295 367.733 211.295 367.733Z" fill="#666666"/>
<path d="M414.643 377.907C416.241 378.077 496.972 376.22 496.972 376.22L490.896 356.251C490.896 356.251 479.706 338.057 473.792 338.388C467.877 338.719 432.698 332.587 426.628 337.114C420.558 341.642 415.121 338.032 412.244 348.861C409.368 359.691 407.122 360.901 409.365 367.427C411.605 373.957 414.643 377.907 414.643 377.907Z" fill="#666666"/>
<path d="M244.956 404.415C260.132 404.415 272.435 391.183 272.435 374.861C272.435 358.54 260.132 345.308 244.956 345.308C229.779 345.308 217.476 358.54 217.476 374.861C217.476 391.183 229.779 404.415 244.956 404.415Z" fill="#666666"/>
<path d="M244.956 395.423C255.515 395.423 264.075 386.217 264.075 374.861C264.075 363.506 255.515 354.3 244.956 354.3C234.397 354.3 225.837 363.506 225.837 374.861C225.837 386.217 234.397 395.423 244.956 395.423Z" fill="#9E9DA2"/>
<path d="M244.956 388.613C252.017 388.613 257.741 382.457 257.741 374.862C257.741 367.267 252.017 361.11 244.956 361.11C237.895 361.11 232.171 367.267 232.171 374.862C232.171 382.457 237.895 388.613 244.956 388.613Z" fill="#D8D9DD"/>
<path d="M456.517 404.415C471.694 404.415 483.997 391.183 483.997 374.861C483.997 358.54 471.694 345.308 456.517 345.308C441.341 345.308 429.038 358.54 429.038 374.861C429.038 391.183 441.341 404.415 456.517 404.415Z" fill="#666666"/>
<path d="M456.517 395.423C467.076 395.423 475.636 386.217 475.636 374.861C475.636 363.506 467.076 354.3 456.517 354.3C445.958 354.3 437.398 363.506 437.398 374.861C437.398 386.217 445.958 395.423 456.517 395.423Z" fill="#9E9DA2"/>
<path d="M443.732 374.862C443.732 382.456 449.456 388.613 456.517 388.613C463.578 388.613 469.302 382.456 469.302 374.862C469.302 367.267 463.578 361.11 456.517 361.11C449.456 361.113 443.732 367.267 443.732 374.862Z" fill="#D8D9DD"/>
<path d="M519.604 346.736C517.282 330.267 509.772 326.808 487.556 322.032C463.045 316.761 431.924 299.573 431.924 299.573C431.924 299.573 378.848 271.615 365.846 268.405C352.844 265.196 320.869 266.113 294.014 266.343C267.157 266.574 251.384 274.594 237.742 286.051C224.101 297.508 200.44 306.218 200.44 306.218L196.141 307.044C191.722 307.892 188.502 312.026 188.502 316.852V357.72C188.502 362.348 191.402 366.396 195.563 367.576L211.096 371.986C212.36 372.219 213.538 371.255 213.676 369.88C215.377 353.162 228.822 340.453 244.853 340.475C261.899 340.497 275.878 355.558 275.869 373.884C275.869 375.968 275.687 378.005 275.347 379.981C274.995 382.021 276.452 383.903 278.382 383.903H421.341C424.118 383.903 426.276 381.28 425.909 378.32C425.733 376.895 425.64 375.441 425.634 373.966C425.584 355.863 439.199 340.857 456.034 340.485C473.484 340.097 487.741 355.192 487.741 373.865C487.741 375.101 487.68 376.321 487.556 377.522C487.21 380.924 489.659 383.903 492.844 383.903H513.399C517.138 383.903 520.167 380.647 520.167 376.627V355.22C520.167 352.383 520 349.545 519.604 346.736Z" fill="#EEAA2B"/>
<path d="M189.408 321.689H206.34C207.792 321.689 208.774 323.277 208.211 324.715L206.308 329.595C204.496 334.246 200.261 337.272 195.572 337.272H189.408C188.203 337.272 187.224 336.219 187.224 334.923V324.037C187.224 322.738 188.2 321.689 189.408 321.689Z" fill="#CF283C"/>
<path d="M492.67 329.252C501.995 330.787 512.734 340.28 512.734 340.28C515.3 343.246 513.179 348.06 509.42 347.805L491.239 346.569C487.463 346.314 484.243 343.536 483.19 339.627C481.422 333.063 482.926 327.647 492.67 329.252Z" fill="#EAFCFC"/>
<path d="M188.598 359.242C187.434 359.211 186.607 360.472 187.035 361.635C188.252 364.93 190.859 367.521 194.193 368.467L211.6 373.41C213.016 373.672 214.336 372.591 214.491 371.052C214.814 367.884 215.518 364.848 216.544 361.982C216.893 361.011 216.236 359.968 215.268 359.942L188.598 359.242Z" fill="#EEAA2B"/>
<path d="M487.888 366.945C486.565 366.91 485.545 368.156 485.715 369.568C485.903 371.135 485.999 372.733 485.999 374.354C485.999 375.725 485.929 377.081 485.794 378.414C485.41 382.188 488.128 385.495 491.659 385.495H514.47C518.616 385.495 521.979 381.879 521.979 377.421V371.075C521.979 369.275 520.645 367.806 518.971 367.762L487.888 366.945Z" fill="#EEAA2B"/>
<path opacity="0.5" d="M431.962 309.037C431.66 308.857 401.442 291.035 381.402 281.054C361.561 271.173 339.413 272.223 338.46 272.274C335.915 272.211 282.927 270.975 266.635 276.435C250.225 281.934 228.851 306.985 227.951 308.05L227.702 308.343L233.449 337.338L234.065 337.301C250.779 336.285 263.576 341.068 271.063 351.131C276.725 358.739 277.423 366.772 277.429 366.851L277.485 367.541L337.751 369.206V369.209L338.445 369.225L339.187 369.247V369.24L423.159 370.999L423.17 370.224C423.59 340.885 432.217 310.248 432.305 309.942L432.475 309.34L431.962 309.037ZM278.784 366.028C278.493 363.852 277.224 356.967 272.233 350.23C266.855 342.966 255.967 334.596 234.596 335.721L229.259 308.801C231.734 305.941 251.952 282.974 267.06 277.911C282.176 272.844 331.273 273.674 337.745 273.806V367.658L278.784 366.028ZM421.742 369.423L339.184 367.692V273.793C343.07 273.674 362.899 273.547 380.795 282.46C399.36 291.704 426.701 307.71 430.759 310.096C429.557 314.516 422.261 342.386 421.742 369.423Z" fill="#EEAA2B"/>
<path opacity="0.5" d="M187.039 361.636C188.256 364.93 190.863 367.519 194.197 368.468L211.604 373.411C213.02 373.673 214.34 372.591 214.495 371.053C214.618 369.83 214.803 368.625 215.038 367.446L187.039 361.636Z" fill="#EEAA2B"/>
<path opacity="0.5" d="M485.958 376.091C485.926 376.87 485.87 377.645 485.794 378.414C485.41 382.188 488.128 385.495 491.659 385.495H514.47C518.616 385.495 521.98 381.879 521.98 377.421V376.091H485.958Z" fill="#EEAA2B"/>
<path d="M426.983 376.091C426.977 374.417 427.088 372.771 427.308 371.157C427.569 369.221 426.226 367.465 424.408 367.418L275.716 363.515C274.095 363.474 272.925 365.136 273.367 366.816C274.139 369.745 274.552 372.828 274.549 376.009C274.549 378.118 274.367 380.18 274.024 382.182C273.667 384.272 275.133 386.208 277.109 386.208H422.616C425.469 386.208 427.628 383.493 427.255 380.451C427.079 379.023 426.985 377.57 426.983 376.091Z" fill="#EEAA2B"/>
<path opacity="0.5" d="M426.982 376.091C426.982 376.063 426.982 376.037 426.982 376.009H274.546C274.546 378.118 274.364 380.18 274.021 382.182C273.663 384.272 275.13 386.208 277.106 386.208H422.613C425.466 386.208 427.625 383.493 427.252 380.451C427.079 379.023 426.985 377.57 426.982 376.091Z" fill="#EEAA2B"/>
<path d="M245.536 311.777L327.71 312.612C327.71 312.612 332.739 312.467 333.425 307.379C334.108 302.29 334.053 280.496 334.053 280.496C334.053 280.496 333.457 276.12 329.557 276.063C327.188 276.029 307.336 274.503 288.026 277.031C272.274 279.093 257.703 286.83 246.656 298.709L240.824 304.983C240.821 304.986 236.886 311.688 245.536 311.777Z" fill="#EAFCFC"/>
<path d="M343.199 283.261V306.111C343.199 309.081 345.316 311.518 347.996 311.635L412.567 314.425C414.051 314.488 415.502 313.769 416.35 312.423C417.508 310.585 417.643 307.565 411.857 303.513C401.796 296.47 376.197 281.234 366.725 279.758C360.696 278.819 352.811 278.412 347.873 278.239C345.316 278.153 343.199 280.426 343.199 283.261Z" fill="#EAFCFC"/>
<path d="M257.712 301.117C257.712 301.117 311.257 294.563 312.403 295.698C313.55 296.833 320.992 315.557 322.344 320.673L259.278 320.033L254.838 312.833L257.712 301.117Z" fill="#B75742"/>
<path d="M371.235 306.263C371.235 306.263 376.162 312.53 377.56 319.299L376.009 322.007L372.898 318.463L371.235 306.263Z" fill="#263D60"/>
<path d="M376.496 289.818C375.552 283.201 369.986 278.44 364.165 281.653C362.857 282.375 361.083 283.841 360.18 285.089C357.735 288.466 357.11 292.634 354.585 295.909C355.512 296.666 356.635 297.46 357.969 298.223L359.541 295.969L358.998 298.784C362.907 300.796 368.423 302.457 375.974 302.41C376.927 297.81 377 293.349 376.496 289.818Z" fill="#666666"/>
<path d="M363.438 304.377C363.438 304.377 357.84 303.996 355.623 306.587C353.409 309.179 360.538 329.687 360.94 332.984C361.341 336.282 357.635 342.862 357.635 342.862C357.635 342.862 373.044 350.614 376.804 347.944C376.804 347.944 376.2 321.502 375.798 319.147C375.396 316.789 372.039 307.208 371.232 306.266C370.432 305.32 363.438 304.377 363.438 304.377Z" fill="#355389"/>
<path d="M365.303 296.347C365.303 296.347 365.274 296.524 365.221 296.827C364.972 298.271 364.01 303.066 363.362 304.384C362.576 305.976 366.048 311.058 369.391 310.437C370.385 310.251 368.549 305.768 368.637 305.295C368.807 304.387 369.036 303.145 369.27 301.874C369.402 301.155 369.537 300.43 369.663 299.746C370.021 297.804 370.311 296.215 370.311 296.215L365.303 296.347Z" fill="#F7A491"/>
<path d="M258.107 302.224C258.055 301.83 257.914 301.458 257.712 301.117L249.753 309.677C249.753 309.677 243.768 319.876 256.929 320.008L260.55 320.046L258.107 302.224Z" fill="#B75742"/>
<path opacity="0.3" d="M365.224 296.824C365.276 296.521 365.306 296.344 365.306 296.344L370.314 296.209C370.314 296.209 370.024 297.798 369.666 299.74C369.54 300.421 369.408 301.143 369.276 301.855C368.502 301.732 367.696 301.329 366.886 300.569C366.004 299.74 365.426 298.743 365.074 297.678C365.133 297.341 365.182 297.047 365.224 296.824Z" fill="#F47458"/>
<path d="M368.672 284.125C368.672 284.125 366.312 283.831 364.834 285.887C363.356 287.942 361.761 294.295 365.435 297.747C369.109 301.203 372.739 297.29 373.279 293.148C373.818 289.002 374.027 283.976 368.672 284.125Z" fill="#F7A491"/>
<path d="M374.367 293.088C373.927 294.002 373.191 294.509 372.722 294.219C372.253 293.929 372.226 292.952 372.666 292.038C373.106 291.123 373.842 290.616 374.311 290.906C374.781 291.193 374.807 292.17 374.367 293.088Z" fill="#F7A491"/>
<path d="M368.936 283.447C368.936 283.447 365.784 289.487 363.529 289.768C361.274 290.048 360.978 293.258 360.978 293.258C360.978 293.258 361.784 285.862 364.019 284.433C366.25 283.005 368.936 283.447 368.936 283.447Z" fill="#666666"/>
<path d="M364.121 291.284C364.306 292.356 363.937 293.34 363.297 293.482C362.658 293.624 361.993 292.867 361.808 291.795C361.623 290.723 361.993 289.74 362.632 289.598C363.271 289.456 363.937 290.212 364.121 291.284Z" fill="#F7A491"/>
<path d="M356.189 333.713C356.177 333.656 358.298 323.965 359.157 321.821C360.013 319.677 363.347 309.724 363.347 309.724L359.034 308.712C359.034 308.712 356.251 316.499 354.984 320.021C353.717 323.542 354.257 330.034 354.201 331.865C354.201 331.891 354.016 333.416 354.013 333.442C353.969 333.643 353.931 333.814 353.911 333.845C353.858 333.933 353.711 334.548 353.706 334.602C353.7 334.655 353.574 334.864 353.521 334.952C353.468 335.04 353.351 336.285 353.327 336.487C353.301 336.689 353.386 337.143 353.386 337.143L353.342 337.978C353.31 338.59 353.899 338.429 353.899 338.429C353.884 338.719 353.978 338.871 354.131 338.924C354.283 338.978 354.462 338.93 354.488 338.943C354.518 338.956 354.53 339.047 354.53 339.047C354.515 339.23 354.705 339.372 354.832 339.397C354.955 339.422 355.178 339.334 355.239 339.255C355.301 339.176 355.345 339.186 355.345 339.186C355.471 339.302 355.952 339.296 356.063 339.129C356.175 338.962 356.274 338.082 356.327 338.004C356.377 337.925 356.485 337.789 356.5 337.663C356.515 337.537 356.911 336.635 356.934 336.452C356.958 336.273 356.711 335.664 356.658 335.302C356.606 334.939 356.274 334.372 356.195 334.211C356.157 334.151 356.166 333.943 356.189 333.713Z" fill="#F48C7F"/>
<path d="M370.432 295.156L366.81 294.954C366.81 294.954 366.822 296.439 368.414 296.578C370.352 296.745 370.432 295.156 370.432 295.156Z" fill="white"/>
<path d="M350.597 298.132L349.286 307.454C349.286 307.454 354.075 318.555 356.934 317.593C359.333 316.786 357.858 306.962 357.858 306.962C357.858 306.962 356.55 301.688 356.943 299.049C357.333 296.407 350.597 298.132 350.597 298.132Z" fill="#F7A491"/>
<path d="M356.94 299.046C357.333 296.407 350.597 298.129 350.597 298.129L350.489 298.901C350.685 299.418 350.926 299.859 351.219 300.2C352.723 301.947 355.075 302.996 357.107 303.075C356.905 301.653 356.779 300.131 356.94 299.046Z" fill="#F47458"/>
<path d="M349.492 284.941C349.301 284.865 347.967 295.559 350.5 298.501C353.034 301.442 357.972 302.407 359.743 300.09C361.702 297.526 361.605 286.035 357.664 283.008C353.723 279.982 349.492 284.941 349.492 284.941Z" fill="#F7A491"/>
<path d="M356.163 277.29C353.116 277.961 351.146 279.966 350.418 280.824C349.034 281 347.155 281.823 345.213 285.291C342.827 289.553 344.589 294.276 347.369 296.593C350.146 298.911 350.108 301.587 350.108 301.587L350.547 300.203C350.87 299.153 351.005 298.044 350.896 296.943C350.832 296.284 350.7 295.569 350.448 294.982C349.779 293.434 351.885 292.407 352.474 291.12C352.929 290.13 352.949 287.86 353.665 286.221L354.518 284.969C354.518 284.969 356.488 283.314 358.418 283.781C360.35 284.248 360.072 276.429 356.163 277.29Z" fill="#3793D8"/>
<path d="M352.345 293.018C352.365 294.323 351.814 295.392 351.116 295.405C350.418 295.417 349.835 294.371 349.814 293.066C349.794 291.76 350.345 290.692 351.043 290.679C351.741 290.666 352.324 291.713 352.345 293.018Z" fill="#F7A491"/>
<path d="M356.459 296.032L360.28 295.818C360.28 295.818 360.268 297.388 358.591 297.533C356.544 297.716 356.459 296.032 356.459 296.032Z" fill="white"/>
<path d="M348.201 307.079C348.55 306.376 349.204 305.903 349.946 305.831C353.157 305.522 361.978 305.515 366.479 313.898C367.188 315.219 367.699 316.654 368.065 318.129L369.012 322.328L345.8 321.518L345.838 318.747C345.606 314.696 346.424 310.657 348.201 307.079Z" fill="#3C8F7C"/>
<path d="M403.342 323.861L406.714 309.147C406.94 308.161 406.38 307.164 405.462 306.921C404.544 306.679 403.617 307.281 403.394 308.268L399.861 323.691L403.342 323.861Z" fill="#666666"/>
<path d="M394.632 323.435C395.585 322.795 396.36 322.269 396.882 321.928C396.92 321.903 399.351 320.648 399.389 320.626C399.732 320.49 400.022 320.386 400.087 320.383C400.271 320.38 401.327 319.999 401.412 319.955C401.497 319.91 401.931 319.914 402.116 319.907C402.301 319.901 404.251 318.82 404.57 318.656C404.893 318.492 405.473 317.883 405.473 317.883L406.746 317.101C407.681 316.528 406.834 315.689 406.834 315.689C407.274 315.415 407.4 315.099 407.324 314.787C407.247 314.475 406.995 314.22 406.984 314.157C406.972 314.097 407.095 313.983 407.095 313.983C407.382 313.823 407.391 313.347 407.3 313.11C407.209 312.87 406.852 312.587 406.67 312.561C406.488 312.536 406.462 312.451 406.462 312.451C406.503 312.12 405.998 311.304 405.638 311.288C405.277 311.272 403.881 312.004 403.711 312C403.544 311.997 403.233 311.953 403.031 312.057C402.828 312.161 401.095 312.416 400.808 312.565C400.521 312.71 399.878 313.75 399.4 314.217C398.922 314.683 398.43 315.825 398.274 316.13C398.213 316.25 397.899 316.449 397.538 316.647C397.483 316.71 386.9 320.822 380.633 322.83L394.632 323.435Z" fill="#F7A491"/>
<path d="M361.638 322.007C360.981 317.773 360.174 313.325 359.306 311.269C357.403 306.764 350.981 304.081 347.832 306.881C346.152 308.375 346.876 315.487 348.307 321.629L361.638 322.007Z" fill="#50BFA5"/>
<path d="M268.347 297.501C268.347 297.501 260.483 297.293 257.811 299.194C255.14 301.095 255.465 320.005 255.465 320.005L258.06 320.535C258.06 320.535 259.002 333.546 261.01 334.227C263.019 334.905 276.226 330.551 278.971 326.887C281.716 323.224 273.159 296.25 273.159 296.25L268.347 297.501Z" fill="#3C8F7C"/>
<path d="M282.329 282.504C283.015 280.218 283.472 273.32 283.622 270.975C283.516 270.804 282.942 269.799 283.003 267.835C283.047 266.447 282.144 264.149 282.971 264.304C283.798 264.458 283.842 266.867 284.337 266.454C284.833 266.038 285.062 260.997 285.812 261.138C286.563 261.28 286.053 266.028 286.498 265.656C286.944 265.284 286.962 260.905 288.023 261.104C289.085 261.302 287.554 266.255 288.123 266.362C288.692 266.47 289.58 263.32 290.434 263.481C291.287 263.642 289.029 267.718 289.293 267.5C289.554 267.283 291.372 265.615 291.674 265.99C292.017 266.413 287.806 271.18 287.795 272.434C288.144 275.612 288.841 281.369 287.888 284.988C286.721 289.415 283.733 299.251 283.733 299.251L277.361 297.621C277.361 297.621 281.516 285.212 282.329 282.504Z" fill="#F7A491"/>
<path d="M285.041 267.387C285.355 267.538 285.616 267.772 285.842 268.036C285.865 268.09 286.663 268.897 286.458 270.209C286.32 269.408 286.161 268.516 285.041 267.387Z" fill="#F48C7F"/>
<path d="M244.293 301.203C244.293 301.203 244.457 300.099 243.604 298.397C243.056 297.306 242.891 295.08 242.32 295.559C241.748 296.038 242.607 297.984 242.076 297.864C241.545 297.744 239.504 293.806 238.985 294.241C238.466 294.677 240.613 298.258 240.138 298.151C239.663 298.044 238.024 294.547 237.291 295.162C236.557 295.777 239.554 299.084 239.161 299.412C238.768 299.74 236.927 297.602 236.337 298.097C235.748 298.592 238.974 300.887 238.695 300.824C238.417 300.761 236.417 300.206 236.323 300.635C236.22 301.117 240.396 302.533 240.871 303.532C241.346 304.529 248.527 314.485 250.58 314.491C252.633 314.497 261.846 307.792 262.515 305.613C263.183 303.435 262.351 301.121 261.008 300.821C259.664 300.518 251.076 307.167 250.653 307.073C250.231 306.978 244.293 301.203 244.293 301.203Z" fill="#F7A491"/>
<path d="M242.162 298.791C241.959 299.09 241.839 299.431 241.763 299.781C241.765 299.841 241.445 300.963 242.227 301.997C241.977 301.225 241.707 300.367 242.162 298.791Z" fill="#F48C7F"/>
<path d="M263.705 314.948C263.705 314.948 271.978 322.02 272.892 323.463C273.576 324.542 271.303 336.705 271.303 336.705C271.303 336.705 268.033 336.815 266.535 335.563C266.535 335.563 267.429 327.158 267.037 326.83C266.644 326.503 257.568 322.161 257.568 322.161L258.143 317.174L263.705 314.948Z" fill="#B75742"/>
<path d="M279.575 289.5C279.575 289.5 281.006 289.787 285.9 295.531L280.212 307.971L274.951 297.627L279.575 289.5Z" fill="#9BC1F9"/>
<path d="M270.347 298.274C270.347 298.274 274.086 297.375 275.394 296.688C276.704 295.997 288.821 326.689 285.765 327.773C279.385 330.037 262.82 336.017 262.82 336.017C262.82 336.017 262.342 334.239 262.943 331.001C263.984 325.396 263.641 312.886 263.421 310.698C263.292 309.412 256.225 313.132 256.225 313.132L253.439 303.435C253.439 303.435 261.506 300.481 264.215 299.544C264.972 299.283 270.347 298.274 270.347 298.274Z" fill="#9BC1F9"/>
<path d="M284.17 317.275C282.657 312.212 272.637 297.653 272.549 297.514L274.185 296.313C274.552 296.89 282.716 309.232 284.314 314.589L284.17 317.275Z" fill="#3C8F7C"/>
<path d="M262.441 326.673L261.403 325.257C261.474 325.197 268.447 319.192 268.634 312.539C268.825 305.815 263.784 299.355 263.734 299.292L265.01 298.122C265.236 298.406 270.52 305.165 270.312 312.593C270.098 320.09 262.752 326.408 262.441 326.673Z" fill="#3C8F7C"/>
<path d="M268.556 277.75C268.556 277.75 271.514 275.388 274.318 279.222C276.552 282.28 276.259 281.319 277.361 282.838C278.467 284.361 280.132 284.49 280.385 287.019C280.637 289.547 279.578 290.067 279.578 290.067C279.578 290.067 280.769 291.921 279.874 294.071C278.98 296.221 276.414 298.28 274.098 298.264C274.098 298.264 270.86 300.692 267.312 300.131C263.767 299.573 264.969 299.434 263.556 299.595C262.145 299.759 258.119 298.119 258.442 295.011C258.442 295.011 255.82 292.309 257.832 289.623C259.846 286.937 260.937 285.064 261.917 281.65C262.902 278.248 266.91 277.145 268.556 277.75Z" fill="#666666"/>
<path d="M272.517 295.213C272.517 295.213 272.84 299.705 273.274 300.08C273.708 300.455 274.324 301.089 273.854 302.224C273.385 303.359 270.822 302.965 269.597 302.489C268.421 302.032 267.591 301.023 267.591 301.023L267.465 293.866L272.517 295.213Z" fill="#F7A491"/>
<path d="M271.042 297.262C270.209 297.054 268.752 296.631 267.479 294.869L267.462 293.866L272.514 295.216C272.514 295.216 272.593 296.313 272.725 297.467C272.042 297.511 271.438 297.359 271.042 297.262Z" fill="#F48C7F"/>
<path d="M265.432 289.941C265.432 289.941 265.051 287.324 263.599 288.009C262.148 288.693 263.69 292.533 264.925 292.258C266.157 291.981 265.432 289.941 265.432 289.941Z" fill="#F7A491"/>
<path d="M269.963 279.758C269.963 279.758 272.309 279.43 273.71 281.259C275.109 283.087 276.98 288.557 275.382 292.665C273.784 296.773 271.15 296.111 270.065 295.84C268.981 295.566 266.828 294.935 265.421 291.429C264.01 287.923 263.954 279.686 269.963 279.758Z" fill="#F7A491"/>
<path d="M317.942 321.622L322.264 343.826L314.804 343.048L311.215 322.741L317.942 321.622Z" fill="#F7A491"/>
<path d="M319.221 322.275L311.213 322.741C311.213 322.741 310.614 316.799 310.479 313.955C310.312 310.506 310.374 306.045 310.767 306.121C311.866 306.329 313.362 306.893 314.297 308.132C317.529 312.42 319.221 322.275 319.221 322.275Z" fill="#5184CE"/>
<path d="M313.957 313.173C314.151 314.217 319.221 343.237 319.221 343.237C307.213 350.315 298.049 344.274 298.049 344.274C298.049 344.274 298.507 324.765 297.891 322.061C297.483 320.27 296.008 308.479 297.082 308.082C298.46 307.571 300.542 306.824 302.281 306.53C303.764 306.281 309.556 305.862 310.612 306.181C310.612 306.181 313.148 308.785 313.957 313.173Z" fill="#EAFCFC"/>
<path d="M309.652 285.486C309.652 285.486 314.508 285.408 314.107 289.73C314.107 289.73 317.719 291.24 315.312 294.743C315.312 294.743 317.881 298.507 313.409 302.123C313.409 302.123 312.221 307.18 307.157 304.762C307.157 304.762 305.658 305.963 303.585 304.355C301.512 302.747 301.242 301.795 301.242 301.795C301.242 301.795 296.659 300.862 297.29 296.328C297.29 296.328 294.882 294.122 298.518 291.35C298.518 291.35 298.451 285.133 303.365 285.972C303.365 285.975 306.236 281.23 309.652 285.486Z" fill="#3793D8"/>
<path d="M302.046 295.666C301.914 296.77 301.245 297.586 300.553 297.492C299.861 297.397 299.404 296.426 299.536 295.323C299.668 294.219 300.336 293.403 301.028 293.497C301.723 293.592 302.178 294.563 302.046 295.666Z" fill="#F7A491"/>
<path d="M313.447 299.037C313.022 300.049 312.16 300.619 311.523 300.31C310.887 300.001 310.714 298.929 311.142 297.914C311.567 296.902 312.429 296.332 313.066 296.641C313.702 296.949 313.875 298.021 313.447 299.037Z" fill="#F7A491"/>
<path d="M307.597 302.397C307.591 302.476 308.004 305.317 308.221 306.817C308.303 307.379 308.004 307.921 307.512 308.116C306.189 308.643 303.615 309.317 301.993 307.486C301.846 307.319 301.776 307.089 301.799 306.858L302.471 300.213L307.597 302.397Z" fill="#F7A491"/>
<path d="M307.996 305.26C306.591 305.884 302.536 305.342 302.231 302.596L302.471 300.216L307.597 302.397C307.594 302.435 307.872 304.393 307.996 305.26Z" fill="#F48C7F"/>
<path d="M308.908 288.86C308.908 288.86 306.77 288.362 304.729 289.724C302.688 291.086 299.375 296.448 302.146 301.105C304.917 305.764 309.62 303.482 311.28 299.793C312.934 296.105 313.638 290.61 308.908 288.86Z" fill="#F7A491"/>
<path d="M307.585 300.389L304.741 300.213C304.741 300.213 304.744 301.379 305.993 301.493C307.515 301.634 307.585 300.389 307.585 300.389Z" fill="white"/>
<path d="M312.555 291.473C312.555 291.473 310.485 290.282 308.943 290.436C307.4 290.594 302.374 294.522 301.641 293.863C300.911 293.204 301.852 289.73 302.436 289.225C303.019 288.721 305.348 287.205 305.547 287.176C305.747 287.148 307.861 287.189 308.221 287.29C308.585 287.391 311.198 288.731 311.198 288.731L312.555 291.473Z" fill="#3793D8"/>
<path d="M282.466 345.87C282.51 345.737 282.616 345.731 282.727 345.724C283.789 345.655 284.844 345.567 285.894 345.362C286.07 345.327 286.24 345.28 286.399 345.204C286.689 345.069 286.976 345.062 287.275 345.141C287.437 345.182 287.601 345.185 287.765 345.182C288.299 345.16 289.803 344.552 290.58 344.381C290.759 344.34 290.894 344.192 290.935 344C291.609 340.702 293.043 333.309 293.187 330.891C293.372 327.795 294.946 313.816 294.946 313.816L300.295 315.226C300.295 315.226 298.413 325.569 297.955 330.57C297.6 334.432 294.266 342.711 293.213 345.094C292.718 346.859 291.489 346.948 291.205 346.995C291.043 347.02 290.894 347.115 290.791 347.25C290.604 347.499 290.39 347.717 290.14 347.9C289.956 348.032 289.815 348.206 289.698 348.404C289.483 348.767 289.293 349.142 289.102 349.52C288.976 349.769 288.841 349.854 288.642 349.801C288.431 349.747 288.325 349.583 288.319 349.306C288.313 348.899 288.425 348.527 288.604 348.171C288.774 347.84 288.753 347.651 288.536 347.358C288.413 347.19 288.284 347.027 288.123 346.894C287.959 346.762 287.789 346.661 287.574 346.699C287.196 346.815 286.815 346.91 286.425 346.97L286.105 347.052C286.094 347.055 285.932 347.099 285.932 347.099C285.906 347.109 285.343 347.194 285.149 347.2C284.994 347.206 284.742 347.225 284.531 347.244C284.337 347.26 283.927 347.165 283.912 347.165C283.724 347.168 283.554 347.099 283.411 346.97C283.352 346.916 283.293 346.856 283.32 346.762C283.343 346.673 283.408 346.636 283.487 346.617C283.613 346.588 284.27 346.478 284.261 346.45C284.064 346.456 283.452 346.462 283.258 346.462C282.994 346.462 282.762 346.371 282.575 346.166C282.51 346.081 282.422 346.002 282.466 345.87Z" fill="#F7A491"/>
<path d="M291.375 322.224L299.125 326.254C299.125 326.254 300.342 320.134 301.251 316.351C302.031 313.097 298.169 307.312 296.885 308.104C294.005 309.875 291.375 322.224 291.375 322.224Z" fill="#5184CE"/>
<path d="M343.75 311.446L412.661 314.598C412.661 314.598 406.649 336.219 406.503 337.297C406.356 338.376 383.742 351.642 378.059 351.484C372.376 351.327 359.125 346.213 356.271 345.311C353.421 344.41 346.014 338.196 346.457 334.375C346.902 330.551 343.75 311.446 343.75 311.446Z" fill="#EEAA2B"/>
<path d="M363.579 322.414H345.09C344.633 322.414 344.263 322.016 344.263 321.525V319.806C344.263 319.315 344.633 318.917 345.09 318.917H363.579C364.036 318.917 364.406 319.315 364.406 319.806V321.525C364.406 322.013 364.036 322.414 363.579 322.414Z" fill="#EEAA2B"/>
<path d="M371.581 281.133L380.918 285.263L380.384 283.198L376.904 281.133C376.904 281.133 374.053 280.537 373.775 280.376C373.493 280.218 371.581 281.133 371.581 281.133Z" fill="#EEAA2B"/>
<path opacity="0.6" d="M416.092 307.574L343.199 300.865V306.108C343.199 309.078 345.316 311.515 347.996 311.632L412.567 314.422C414.051 314.485 415.502 313.766 416.35 312.42C417.08 311.266 417.402 309.636 416.092 307.574Z" fill="#C5DDF9"/>
<path opacity="0.7" d="M343.199 300.865V300.112L415.831 307.189L416.092 307.574L343.199 300.865Z" fill="#C5DDF9"/>
<path opacity="0.2" d="M359.984 312.152L366.626 312.439L372.08 303.523L365.623 302.93L359.984 312.152Z" fill="white"/>
<path opacity="0.2" d="M371.769 312.662L377.077 303.983L374.622 303.759L369.244 312.552L371.769 312.662Z" fill="white"/>
<path d="M244.452 311.726L327.713 312.612L328.458 340.983C328.458 340.983 318.731 356.195 317.558 356.034C316.385 355.876 291.516 351.573 289.285 351.734C287.053 351.894 267.559 341.607 266.638 341.812C265.717 342.017 259.644 338.511 259.644 338.511L249.744 330.992L239.93 320.131L244.452 311.726Z" fill="#EEAA2B"/>
<path d="M261.303 320.664H242.815C242.357 320.664 241.988 320.267 241.988 319.775V318.057C241.988 317.565 242.357 317.168 242.815 317.168H261.303C261.761 317.168 262.13 317.565 262.13 318.057V319.775C262.13 320.267 261.761 320.664 261.303 320.664Z" fill="#EEAA2B"/>
<path d="M273.622 291.149L270.74 291.745C270.74 291.745 271.016 292.908 272.291 292.684C273.845 292.416 273.622 291.149 273.622 291.149Z" fill="white"/>
<path d="M264.696 288.182C264.696 288.182 271.2 284.979 271.846 279.96C272.491 274.941 266.5 279.736 266.5 279.736L264.078 282.236L264.696 288.182Z" fill="#666666"/>
<path d="M345.562 310.812C345.562 310.812 346.773 311.71 348.304 311.647C348.304 311.647 346.269 312.316 346.207 312.262C346.149 312.209 345.122 311.323 345.137 311.304C345.155 311.288 345.562 310.812 345.562 310.812Z" fill="#EEAA2B"/>
<path d="M351.841 278.409L359.981 278.964C359.981 278.964 358.647 276.593 358.084 276.593C357.518 276.593 353.794 276.593 353.794 276.593L351.841 278.409Z" fill="#EEAA2B"/>
<path d="M679.477 410.543H19.9169C18.4477 410.543 17.2543 408.939 17.2543 406.962C17.2543 404.985 18.4477 403.38 19.9169 403.38H679.477C680.949 403.38 682.139 404.985 682.139 406.962C682.139 408.942 680.946 410.543 679.477 410.543Z" fill="#666666"/>
<g opacity="0.3">
<path d="M11.0434 412.556H674.759C729.773 432.599 701.461 492.911 655.511 505.136C606.047 518.297 684.591 563.812 608.396 578.585C558.649 588.232 491.225 577.456 458.291 598.221C419.596 622.619 355.318 652.316 235.601 629.239C143.267 611.442 193.419 577.13 42.3259 566.8C-35.3672 561.488 -20.3535 516.037 -13.1105 506.646C-6.80008 498.466 34.9422 485.49 -23.0718 467.621C-108.14 441.42 9.03764 413.038 11.0434 412.556Z" fill="#FFF7E8"/>
<path d="M211.295 479.928C211.295 479.928 296.381 534.003 346.984 533.83C397.588 533.656 452.714 498.211 524.727 467.941C605.429 434.017 500.051 432.593 493.969 432.314C487.888 432.034 278.059 435.753 274.561 437.583C271.062 439.415 215.037 462.87 215.037 462.87L211.295 479.928Z" fill="#FFE3B0"/>
<path d="M167.227 490.807C239.871 483.219 348.87 415.03 431.891 415.03C514.912 415.03 532.788 431.34 563.921 427.891C595.054 424.443 636.849 415.03 636.849 415.03L19.9167 413.886C19.9167 413.886 94.5837 498.395 167.227 490.807Z" fill="#D6C5A7"/>
<path d="M496.491 490.807C423.848 483.219 314.849 415.03 231.827 415.03C148.806 415.03 130.93 431.34 99.7974 427.891C68.6644 424.443 26.8694 415.03 26.8694 415.03L643.802 413.886C643.805 413.886 569.135 498.395 496.491 490.807Z" fill="#E3EEFF"/>
<path d="M19.9167 413.886C19.9167 413.886 99.5628 457.316 202.257 459.983C236.742 460.879 377.947 442.918 496.855 428.806C501.854 428.213 512.66 422.405 517.722 421.808C574.014 415.166 626.474 413.762 643.441 413.333L19.9167 413.886Z" fill="#E3FFF8"/>
<path d="M670.011 412.351C670.011 412.351 639.054 436.732 619.574 440.47C600.095 444.209 618.454 429.358 618.454 429.358C618.454 429.358 583.896 451.762 571.217 449.743C559.593 447.89 571.217 434.004 571.217 434.004C571.217 434.004 558.124 441.694 542.248 441.694C526.369 441.694 554.52 412.899 554.52 412.899L670.011 412.351Z" fill="#FFFBF3"/>
<path opacity="0.5" d="M339.392 584.233C337.879 587.537 331.985 590.003 324.939 590.003C323.646 590.003 322.391 589.919 321.194 589.763C317.716 593.494 310.168 596.081 301.415 596.081C299.152 596.081 296.97 595.908 294.917 595.588C290.205 599.502 281.645 602.12 271.866 602.12C260.23 602.12 250.322 598.415 246.565 593.229C243.909 593.972 240.847 594.397 237.589 594.397C227.391 594.397 219.124 590.25 219.124 585.134C219.124 584.831 219.157 584.53 219.212 584.235H339.392V584.233Z" fill="white"/>
<path opacity="0.5" d="M503.224 526.437C503.954 528.029 506.793 529.216 510.185 529.216C510.81 529.216 511.411 529.176 511.989 529.101C513.663 530.898 517.299 532.144 521.513 532.144C522.604 532.144 523.654 532.06 524.642 531.905C526.912 533.79 531.032 535.051 535.741 535.051C541.345 535.051 546.116 533.266 547.925 530.77C549.204 531.127 550.678 531.333 552.247 531.333C557.159 531.333 561.138 529.335 561.138 526.873C561.138 526.727 561.124 526.583 561.097 526.44H503.224V526.437Z" fill="white"/>
<path opacity="0.5" d="M401.617 547.138C400.723 549.093 397.234 550.553 393.064 550.553C392.298 550.553 391.556 550.503 390.847 550.411C388.788 552.62 384.322 554.15 379.144 554.15C377.804 554.15 376.513 554.048 375.299 553.857C372.511 556.174 367.447 557.722 361.658 557.722C354.773 557.722 348.908 555.53 346.685 552.459C345.114 552.899 343.301 553.151 341.372 553.151C335.337 553.151 330.443 550.697 330.443 547.668C330.443 547.488 330.461 547.31 330.496 547.135H401.617V547.138Z" fill="white"/>
<path opacity="0.5" d="M540.163 570.11C538.952 572.751 534.242 574.722 528.609 574.722C527.574 574.722 526.571 574.656 525.615 574.531C522.835 577.513 516.804 579.579 509.81 579.579C508.001 579.579 506.259 579.44 504.617 579.184C500.851 582.312 494.01 584.404 486.193 584.404C476.894 584.404 468.974 581.442 465.974 577.298C463.851 577.893 461.405 578.232 458.798 578.232C450.649 578.232 444.04 574.918 444.04 570.828C444.04 570.585 444.063 570.346 444.11 570.11H540.163V570.11Z" fill="white"/>
<path opacity="0.5" d="M152.694 537.852C153.299 539.169 155.647 540.151 158.454 540.151C158.97 540.151 159.468 540.118 159.946 540.056C161.333 541.542 164.339 542.573 167.825 542.573C168.726 542.573 169.597 542.504 170.415 542.376C172.291 543.935 175.702 544.978 179.599 544.978C184.235 544.978 188.182 543.503 189.677 541.436C190.736 541.731 191.956 541.901 193.255 541.901C197.319 541.901 200.612 540.248 200.612 538.209C200.612 538.089 200.601 537.97 200.577 537.852H152.694Z" fill="white"/>
<path d="M330.949 496.311V496.967H326.498V496.311H330.949Z" fill="#EEAA2B"/>
<path d="M335.885 481.43V497.032C335.885 498.063 334.22 498.899 332.164 498.899H325.69C323.634 498.899 321.968 498.063 321.968 497.032V481.429C321.968 480.397 323.634 479.562 325.69 479.562H332.164C334.22 479.563 335.885 480.399 335.885 481.43Z" fill="#F47458"/>
<path d="M328.927 479.563H332.66C334.44 479.563 335.885 479.957 335.885 480.444V498.017C335.885 498.504 334.874 498.899 333.091 498.899H328.927V479.563Z" fill="#B75742"/>
<path d="M329.546 487.241V491.746H327.901V487.241H329.546Z" fill="#666666"/>
<path d="M349.143 481.456V492.809C349.143 493.855 347.453 494.703 345.369 494.703H338.999C336.915 494.703 335.225 493.855 335.225 492.809V481.456C335.225 480.41 336.915 479.563 338.999 479.563H345.369C347.451 479.563 349.143 480.41 349.143 481.456Z" fill="#355389"/>
<path d="M342.184 479.563H345.917C347.697 479.563 349.143 479.872 349.143 480.253V494.014C349.143 494.395 347.7 494.704 345.917 494.704H342.184V479.563Z" fill="#5184CE"/>
<path d="M344.207 492.676V493.191H339.756V492.676H344.207Z" fill="#EEAA2B"/>
<path d="M342.804 485.574V489.102H341.159V485.574H342.804Z" fill="#666666"/>
<path d="M276.33 479.314H275.663V475.918H276.33V479.314Z" fill="#3793D8"/>
<path d="M356.953 479.314H356.286V475.918H356.953V479.314Z" fill="#3793D8"/>
<path d="M327.859 486.548H281.894C279.639 486.548 277.813 485.632 277.813 484.5V481.614C277.813 480.482 279.639 479.566 281.894 479.566H327.859C330.114 479.566 331.941 480.482 331.941 481.614V484.5C331.941 485.632 330.114 486.548 327.859 486.548Z" fill="#B75742"/>
<path d="M331.941 483.057V484.93C331.941 485.823 330.836 486.548 329.475 486.548H280.276C278.915 486.548 277.81 485.824 277.81 484.93V483.057H331.941Z" fill="#91342A"/>
<path d="M286.525 484.072H284.686V481.839H286.525V484.072Z" fill="#EEAA2B"/>
<path d="M325.068 484.072H323.229V481.839H325.068V484.072Z" fill="#EEAA2B"/>
<path d="M310.447 483.369H297.835V482.544H310.447V483.369Z" fill="#666666"/>
<path d="M319.766 493.53H289.988C287.569 493.53 285.607 492.546 285.607 491.332V488.748C285.607 487.534 287.569 486.55 289.988 486.55H319.766C322.185 486.55 324.147 487.534 324.147 488.748V491.332C324.147 492.546 322.185 493.53 319.766 493.53Z" fill="#4E9B87"/>
<path d="M324.147 490.039V491.912C324.147 492.805 323.361 493.53 322.391 493.53H287.361C286.39 493.53 285.604 492.806 285.604 491.912V490.039H324.147Z" fill="#3C8F7C"/>
<path d="M290.762 491.054H289.454V488.821H290.762V491.054Z" fill="#EEAA2B"/>
<path d="M354.007 479.572L322.121 479.581L321.608 486.707H354.007C357.934 486.707 361.118 485.109 361.118 483.139C361.121 481.17 357.937 479.572 354.007 479.572Z" fill="#FAE0B2"/>
<path d="M328.927 483.141C328.927 481.171 325.994 479.574 322.376 479.574C318.757 479.574 315.825 481.171 315.825 483.141C315.825 485.111 318.757 486.709 322.376 486.709C325.994 486.709 328.927 485.111 328.927 483.141Z" fill="#EEAA2B"/>
<path d="M335.684 479.238L335.678 479.241C335.385 479.356 335.326 479.565 335.54 479.718C337.699 481.248 338.3 482.876 337.326 484.562C336.784 485.501 335.872 486.216 335.359 486.57C335.15 486.713 335.194 486.913 335.458 487.031L335.467 487.034C335.772 487.169 336.241 487.144 336.482 486.979C337.059 486.582 338.039 485.81 338.643 484.784C339.423 483.456 339.681 481.452 336.672 479.316C336.444 479.153 335.995 479.117 335.684 479.238Z" fill="#F47458"/>
<path d="M347.337 479.238L347.331 479.241C347.038 479.356 346.979 479.565 347.196 479.718C349.354 481.248 349.956 482.876 348.982 484.562C348.44 485.501 347.528 486.216 347.014 486.57C346.806 486.713 346.85 486.913 347.114 487.031L347.123 487.034C347.428 487.169 347.897 487.144 348.138 486.979C348.715 486.582 349.695 485.81 350.299 484.784C351.079 483.456 351.337 481.452 348.328 479.316C348.099 479.153 347.651 479.117 347.337 479.238Z" fill="#F47458"/>
<path d="M327.795 483.778C327.446 484.902 326.235 485.468 325.282 485.746C323.862 486.158 322.038 486.217 320.399 485.901C318.842 485.601 317.599 484.918 317.153 484.118C316.757 483.406 317.051 482.682 317.98 482.08C319.543 481.068 321.939 481.228 323.109 481.481C324.17 481.711 324.965 482.257 325.138 482.87C325.276 483.366 324.83 483.846 323.971 484.121C323.106 484.397 322.047 484.4 321.2 484.127C320.584 483.928 319.974 483.534 320.552 482.791L321.021 482.882C320.651 483.359 320.798 483.696 321.473 483.915C322.15 484.134 323.003 484.133 323.698 483.909C324.39 483.688 324.748 483.303 324.639 482.906C324.493 482.377 323.813 481.91 322.909 481.714C321.871 481.489 319.751 481.346 318.379 482.235C317.314 482.925 317.388 483.603 317.637 484.05C318.036 484.764 319.188 485.398 320.578 485.665C322.074 485.954 323.739 485.902 325.027 485.527C326.258 485.17 327.044 484.55 327.296 483.738C327.625 482.68 327.229 481.837 326.123 481.231C324.044 480.094 319.637 480.11 318.88 480.122C319.156 480.028 319.443 479.944 319.742 479.872C319.754 479.872 319.769 479.872 319.781 479.872C321.121 479.872 324.525 479.985 326.493 481.059C327.71 481.726 328.147 482.639 327.795 483.778Z" fill="#F47458"/>
<path d="M319.25 491.054H317.942V488.821H319.25V491.054Z" fill="#EEAA2B"/>
<path d="M308.843 490.351H299.864V489.526H308.843V490.351Z" fill="#666666"/>
<path d="M296.992 493.829L281.835 479.411L282.269 479.297L297.425 493.715L296.992 493.829Z" fill="#666666"/>
<path d="M314.012 493.935L313.578 493.82L329.139 479.042L329.572 479.157L314.012 493.935Z" fill="#666666"/>
<path d="M346.037 494.905L345.583 494.813L358.193 479.31L358.647 479.402L346.037 494.905Z" fill="#666666"/>
<path d="M330.938 499.038L330.476 498.956L344.304 479.32L344.766 479.401L330.938 499.038Z" fill="#666666"/>
<path d="M360.057 479.583H272.693V479.122H360.057V479.583Z" fill="#3793D8"/>
<path d="M211.295 430.52C211.295 430.52 277.96 424.97 278.757 425.211C279.558 425.452 288.191 444.139 288.191 444.139C288.191 444.139 233.065 449.111 232.171 449.111C231.279 449.111 219.289 444.299 219.128 443.979C218.966 443.658 211.295 430.52 211.295 430.52Z" fill="#666666"/>
<path d="M414.643 425.773C416.241 425.694 496.972 426.56 496.972 426.56L490.896 435.878C490.896 435.878 479.706 444.369 473.792 444.214C467.877 444.06 432.698 446.921 426.628 444.808C420.558 442.696 415.121 444.38 412.244 439.327C409.368 434.273 407.122 433.709 409.365 430.663C411.605 427.616 414.643 425.773 414.643 425.773Z" fill="#666666"/>
<path d="M244.956 413.403C260.132 413.403 272.435 419.578 272.435 427.194C272.435 434.81 260.132 440.985 244.956 440.985C229.779 440.985 217.477 434.81 217.477 427.194C217.477 419.578 229.779 413.403 244.956 413.403Z" fill="#666666"/>
<path d="M244.956 417.599C255.515 417.599 264.075 421.895 264.075 427.194C264.075 432.493 255.515 436.789 244.956 436.789C234.397 436.789 225.837 432.493 225.837 427.194C225.837 421.895 234.397 417.599 244.956 417.599Z" fill="#9E9DA2"/>
<path d="M244.956 420.777C252.017 420.777 257.741 423.65 257.741 427.194C257.741 430.738 252.017 433.611 244.956 433.611C237.895 433.611 232.171 430.738 232.171 427.194C232.171 423.65 237.895 420.777 244.956 420.777Z" fill="#D8D9DD"/>
<path d="M456.517 413.403C471.694 413.403 483.997 419.578 483.997 427.194C483.997 434.81 471.694 440.985 456.517 440.985C441.341 440.985 429.038 434.81 429.038 427.194C429.038 419.578 441.341 413.403 456.517 413.403Z" fill="#666666"/>
<path d="M456.517 417.599C467.076 417.599 475.636 421.895 475.636 427.194C475.636 432.493 467.076 436.789 456.517 436.789C445.958 436.789 437.398 432.493 437.398 427.194C437.398 421.895 445.958 417.599 456.517 417.599Z" fill="#9E9DA2"/>
<path d="M443.732 427.194C443.732 423.65 449.456 420.777 456.517 420.777C463.578 420.777 469.302 423.65 469.302 427.194C469.302 430.738 463.578 433.611 456.517 433.611C449.456 433.61 443.732 430.738 443.732 427.194Z" fill="#D8D9DD"/>
<path d="M519.604 440.318C517.282 448.004 509.772 449.618 487.556 451.846C463.045 454.306 431.924 462.327 431.924 462.327C431.924 462.327 378.848 475.373 365.846 476.871C352.844 478.368 320.869 477.94 294.014 477.833C267.157 477.726 251.384 473.983 237.742 468.637C224.101 463.291 200.44 459.226 200.44 459.226L196.141 458.84C191.722 458.445 188.502 456.516 188.502 454.263V435.193C188.502 433.033 191.402 431.144 195.563 430.594L211.096 428.536C212.36 428.427 213.538 428.877 213.676 429.519C215.377 437.32 228.822 443.25 244.853 443.24C261.899 443.23 275.878 436.202 275.869 427.65C275.869 426.678 275.687 425.727 275.347 424.805C274.995 423.853 276.452 422.975 278.382 422.975H421.341C424.118 422.975 426.276 424.199 425.909 425.58C425.733 426.245 425.64 426.923 425.634 427.612C425.584 436.059 439.199 443.062 456.034 443.236C473.484 443.417 487.741 436.373 487.741 427.659C487.741 427.082 487.68 426.513 487.556 425.952C487.21 424.365 489.659 422.975 492.844 422.975H513.399C517.138 422.975 520.167 424.495 520.167 426.37V436.359C520.167 437.683 520 439.008 519.604 440.318Z" fill="#EEAA2B"/>
<path d="M189.408 452.007H206.34C207.792 452.007 208.774 451.265 208.211 450.594L206.308 448.317C204.496 446.147 200.261 444.735 195.572 444.735H189.408C188.203 444.735 187.224 445.226 187.224 445.831V450.911C187.224 451.517 188.2 452.007 189.408 452.007Z" fill="#CF283C"/>
<path d="M492.671 448.477C501.995 447.761 512.734 443.331 512.734 443.331C515.3 441.947 513.18 439.701 509.42 439.82L491.24 440.396C487.463 440.516 484.243 441.812 483.19 443.636C481.422 446.699 482.926 449.226 492.671 448.477Z" fill="#EAFCFC"/>
<path d="M188.599 434.483C187.434 434.497 186.607 433.909 187.036 433.366C188.253 431.829 190.859 430.619 194.194 430.178L211.6 427.871C213.016 427.749 214.336 428.254 214.491 428.972C214.814 430.45 215.518 431.867 216.544 433.204C216.893 433.657 216.236 434.144 215.268 434.156L188.599 434.483Z" fill="#EEAA2B"/>
<path d="M487.888 430.888C486.565 430.905 485.545 430.323 485.715 429.664C485.903 428.933 485.999 428.187 485.999 427.431C485.999 426.791 485.929 426.159 485.794 425.536C485.41 423.775 488.128 422.232 491.659 422.232H514.47C518.616 422.232 521.979 423.919 521.979 426V428.961C521.979 429.801 520.645 430.487 518.971 430.507L487.888 430.888Z" fill="#EEAA2B"/>
<path opacity="0.5" d="M431.962 457.91C431.66 457.994 401.442 466.311 381.402 470.968C361.561 475.579 339.413 475.089 338.46 475.066C335.915 475.095 282.927 475.672 266.635 473.124C250.225 470.558 228.851 458.868 227.951 458.371L227.702 458.234L233.449 444.704L234.065 444.721C250.779 445.195 263.576 442.963 271.063 438.267C276.725 434.718 277.423 430.969 277.429 430.932L277.485 430.61L337.751 429.833V429.832L338.445 429.825L339.187 429.814V429.817L423.159 428.996L423.17 429.358C423.59 443.049 432.217 457.346 432.305 457.488L432.475 457.769L431.962 457.91ZM278.784 431.316C278.493 432.331 277.224 435.544 272.233 438.688C266.855 442.078 255.967 445.984 234.596 445.459L229.259 458.021C231.734 459.355 251.952 470.073 267.06 472.435C282.176 474.799 331.273 474.412 337.745 474.351V430.556L278.784 431.316ZM421.742 429.732L339.184 430.539V474.357C343.07 474.412 362.899 474.471 380.795 470.312C399.36 465.999 426.701 458.53 430.759 457.416C429.557 455.354 422.261 442.349 421.742 429.732Z" fill="#EEAA2B"/>
<path opacity="0.5" d="M187.04 433.366C188.256 431.828 190.863 430.62 194.197 430.178L211.604 427.871C213.02 427.749 214.34 428.253 214.495 428.971C214.618 429.542 214.803 430.104 215.038 430.654L187.04 433.366Z" fill="#EEAA2B"/>
<path opacity="0.5" d="M485.958 426.62C485.926 426.257 485.871 425.895 485.794 425.536C485.41 423.775 488.128 422.232 491.659 422.232H514.47C518.616 422.232 521.98 423.919 521.98 425.999V426.62H485.958Z" fill="#EEAA2B"/>
<path d="M426.983 426.62C426.977 427.402 427.088 428.169 427.308 428.923C427.569 429.826 426.226 430.645 424.408 430.667L275.716 432.489C274.095 432.508 272.925 431.733 273.367 430.948C274.139 429.582 274.552 428.143 274.549 426.659C274.549 425.674 274.367 424.712 274.024 423.778C273.667 422.803 275.133 421.899 277.109 421.899H422.616C425.469 421.899 427.628 423.166 427.255 424.586C427.079 425.252 426.985 425.93 426.983 426.62Z" fill="#EEAA2B"/>
<path opacity="0.5" d="M426.982 426.62C426.982 426.634 426.982 426.645 426.982 426.659H274.546C274.546 425.674 274.364 424.712 274.021 423.778C273.664 422.803 275.13 421.899 277.106 421.899H422.613C425.466 421.899 427.625 423.166 427.252 424.586C427.079 425.252 426.985 425.93 426.982 426.62Z" fill="#EEAA2B"/>
<path d="M245.536 456.632L327.71 456.242C327.71 456.242 332.739 456.31 333.425 458.684C334.109 461.059 334.053 471.229 334.053 471.229C334.053 471.229 333.458 473.271 329.558 473.297C327.188 473.314 307.336 474.026 288.026 472.846C272.274 471.884 257.703 468.273 246.657 462.73L240.824 459.803C240.821 459.801 236.886 456.673 245.536 456.632Z" fill="#EAFCFC"/>
<path d="M343.199 469.939V459.276C343.199 457.89 345.316 456.753 347.996 456.698L412.567 455.396C414.051 455.367 415.502 455.702 416.35 456.33C417.508 457.188 417.643 458.597 411.857 460.488C401.796 463.775 376.197 470.885 366.725 471.573C360.696 472.012 352.811 472.201 347.873 472.282C345.316 472.322 343.199 471.261 343.199 469.939Z" fill="#EAFCFC"/>
<path d="M257.712 461.606C257.712 461.606 311.257 464.665 312.403 464.135C313.55 463.605 320.992 454.868 322.344 452.48L259.278 452.779L254.838 456.139L257.712 461.606Z" fill="#B75742"/>
<path d="M371.235 459.205C371.235 459.205 376.162 456.28 377.56 453.122L376.009 451.858L372.898 453.512L371.235 459.205Z" fill="#263D60"/>
<path d="M376.496 466.879C375.552 469.967 369.986 472.188 364.165 470.689C362.858 470.352 361.083 469.668 360.18 469.086C357.735 467.51 357.11 465.565 354.585 464.037C355.512 463.683 356.635 463.313 357.969 462.957L359.541 464.009L358.999 462.695C362.907 461.756 368.423 460.981 375.974 461.003C376.927 463.149 377 465.231 376.496 466.879Z" fill="#666666"/>
<path d="M363.438 460.085C363.438 460.085 357.84 460.263 355.623 459.054C353.409 457.844 360.538 448.274 360.94 446.736C361.341 445.197 357.635 442.126 357.635 442.126C357.635 442.126 373.044 438.509 376.804 439.755C376.804 439.755 376.2 452.094 375.798 453.193C375.396 454.293 372.039 458.764 371.232 459.204C370.432 459.645 363.438 460.085 363.438 460.085Z" fill="#355389"/>
<path d="M365.303 463.832C365.303 463.832 365.274 463.749 365.221 463.608C364.972 462.934 364.01 460.697 363.362 460.082C362.576 459.339 366.048 456.967 369.391 457.257C370.385 457.344 368.549 459.436 368.637 459.657C368.807 460.08 369.036 460.66 369.271 461.253C369.403 461.588 369.537 461.927 369.664 462.246C370.021 463.152 370.312 463.894 370.312 463.894L365.303 463.832Z" fill="#F7A491"/>
<path d="M258.108 461.09C258.055 461.273 257.914 461.447 257.712 461.606L249.753 457.612C249.753 457.612 243.768 452.853 256.929 452.791L260.55 452.773L258.108 461.09Z" fill="#B75742"/>
<path opacity="0.3" d="M365.224 463.61C365.276 463.751 365.306 463.833 365.306 463.833L370.314 463.897C370.314 463.897 370.024 463.155 369.666 462.249C369.54 461.931 369.408 461.594 369.276 461.262C368.502 461.319 367.696 461.508 366.886 461.862C366.004 462.249 365.426 462.714 365.074 463.211C365.133 463.369 365.183 463.505 365.224 463.61Z" fill="#F47458"/>
<path d="M368.672 469.535C368.672 469.535 366.312 469.672 364.834 468.713C363.356 467.754 361.761 464.79 365.435 463.179C369.109 461.566 372.739 463.392 373.279 465.325C373.818 467.26 374.027 469.605 368.672 469.535Z" fill="#F7A491"/>
<path d="M374.367 465.353C373.927 464.927 373.191 464.69 372.722 464.825C372.253 464.96 372.227 465.416 372.666 465.843C373.106 466.27 373.842 466.507 374.311 466.371C374.781 466.237 374.807 465.781 374.367 465.353Z" fill="#F7A491"/>
<path d="M368.936 469.852C368.936 469.852 365.784 467.033 363.529 466.902C361.274 466.771 360.978 465.274 360.978 465.274C360.978 465.274 361.784 468.725 364.019 469.391C366.25 470.058 368.936 469.852 368.936 469.852Z" fill="#666666"/>
<path d="M364.121 466.195C364.306 465.694 363.937 465.235 363.297 465.169C362.658 465.103 361.993 465.456 361.808 465.956C361.623 466.456 361.993 466.915 362.632 466.982C363.271 467.048 363.937 466.695 364.121 466.195Z" fill="#F7A491"/>
<path d="M356.189 446.396C356.178 446.422 358.298 450.945 359.157 451.945C360.013 452.945 363.347 457.59 363.347 457.59L359.034 458.062C359.034 458.062 356.251 454.428 354.984 452.785C353.717 451.142 354.257 448.113 354.201 447.258C354.201 447.246 354.016 446.534 354.014 446.522C353.97 446.428 353.931 446.349 353.911 446.334C353.858 446.293 353.711 446.006 353.706 445.981C353.7 445.956 353.574 445.859 353.521 445.818C353.468 445.776 353.351 445.195 353.327 445.101C353.301 445.007 353.386 444.795 353.386 444.795L353.342 444.405C353.31 444.12 353.899 444.195 353.899 444.195C353.885 444.059 353.978 443.989 354.131 443.964C354.283 443.939 354.462 443.961 354.489 443.955C354.518 443.949 354.53 443.906 354.53 443.906C354.515 443.821 354.706 443.755 354.832 443.743C354.955 443.731 355.178 443.773 355.239 443.809C355.301 443.846 355.345 443.842 355.345 443.842C355.471 443.787 355.952 443.79 356.063 443.868C356.175 443.946 356.274 444.357 356.327 444.393C356.377 444.43 356.486 444.493 356.5 444.552C356.515 444.611 356.911 445.032 356.934 445.117C356.958 445.201 356.711 445.485 356.659 445.654C356.606 445.823 356.274 446.088 356.195 446.163C356.157 446.191 356.166 446.288 356.189 446.396Z" fill="#F48C7F"/>
<path d="M370.432 464.388L366.81 464.482C366.81 464.482 366.822 463.789 368.414 463.725C370.353 463.647 370.432 464.388 370.432 464.388Z" fill="white"/>
<path d="M350.597 462.999L349.286 458.649C349.286 458.649 354.075 453.469 356.934 453.918C359.333 454.294 357.858 458.878 357.858 458.878C357.858 458.878 356.55 461.34 356.943 462.571C357.333 463.804 350.597 462.999 350.597 462.999Z" fill="#F7A491"/>
<path d="M356.94 462.572C357.333 463.804 350.597 463.001 350.597 463.001L350.489 462.64C350.685 462.399 350.926 462.193 351.219 462.034C352.723 461.219 355.075 460.729 357.107 460.692C356.905 461.356 356.779 462.066 356.94 462.572Z" fill="#F47458"/>
<path d="M349.492 469.155C349.301 469.19 347.967 464.2 350.5 462.827C353.034 461.454 357.972 461.004 359.743 462.086C361.702 463.282 361.605 468.644 357.664 470.056C353.723 471.469 349.492 469.155 349.492 469.155Z" fill="#F7A491"/>
<path d="M356.163 472.725C353.116 472.412 351.146 471.476 350.419 471.076C349.034 470.993 347.155 470.61 345.214 468.991C342.827 467.002 344.589 464.798 347.369 463.717C350.146 462.636 350.108 461.387 350.108 461.387L350.548 462.033C350.87 462.523 351.005 463.04 350.897 463.554C350.832 463.861 350.7 464.195 350.448 464.469C349.779 465.191 351.885 465.671 352.474 466.271C352.929 466.733 352.949 467.792 353.665 468.557L354.518 469.141C354.518 469.141 356.489 469.914 358.418 469.696C360.35 469.478 360.072 473.127 356.163 472.725Z" fill="#3793D8"/>
<path d="M352.345 465.385C352.366 464.776 351.814 464.278 351.116 464.272C350.418 464.266 349.835 464.754 349.814 465.363C349.794 465.972 350.345 466.471 351.043 466.477C351.741 466.483 352.325 465.994 352.345 465.385Z" fill="#F7A491"/>
<path d="M356.459 463.979L360.28 464.079C360.28 464.079 360.268 463.346 358.591 463.279C356.544 463.193 356.459 463.979 356.459 463.979Z" fill="white"/>
<path d="M348.201 458.824C348.55 459.152 349.204 459.373 349.946 459.407C353.157 459.551 361.978 459.554 366.479 455.642C367.189 455.026 367.699 454.356 368.065 453.668L369.013 451.708L345.8 452.086L345.838 453.379C345.606 455.27 346.424 457.154 348.201 458.824Z" fill="#3C8F7C"/>
<path d="M403.342 450.993L406.714 457.859C406.94 458.319 406.38 458.784 405.462 458.898C404.544 459.011 403.617 458.73 403.394 458.269L399.861 451.073L403.342 450.993Z" fill="#666666"/>
<path d="M394.633 451.192C395.586 451.491 396.36 451.736 396.882 451.895C396.92 451.907 399.351 452.492 399.389 452.503C399.732 452.566 400.022 452.614 400.087 452.616C400.272 452.617 401.327 452.795 401.412 452.816C401.497 452.837 401.931 452.835 402.116 452.838C402.301 452.841 404.251 453.346 404.57 453.422C404.893 453.499 405.474 453.783 405.474 453.783L406.746 454.147C407.682 454.415 406.834 454.806 406.834 454.806C407.274 454.934 407.4 455.082 407.324 455.227C407.248 455.373 406.995 455.492 406.984 455.521C406.972 455.549 407.095 455.602 407.095 455.602C407.383 455.677 407.391 455.9 407.3 456.01C407.209 456.122 406.852 456.254 406.67 456.266C406.488 456.278 406.462 456.317 406.462 456.317C406.503 456.472 405.998 456.853 405.638 456.86C405.277 456.868 403.881 456.526 403.711 456.528C403.544 456.529 403.233 456.55 403.031 456.501C402.829 456.453 401.096 456.334 400.808 456.264C400.521 456.197 399.879 455.711 399.401 455.494C398.923 455.276 398.43 454.743 398.275 454.601C398.213 454.545 397.899 454.452 397.539 454.359C397.483 454.33 386.9 452.411 380.633 451.474L394.633 451.192Z" fill="#F7A491"/>
<path d="M361.638 451.858C360.981 453.834 360.174 455.91 359.306 456.869C357.403 458.971 350.981 460.223 347.832 458.917C346.152 458.219 346.876 454.901 348.307 452.035L361.638 451.858Z" fill="#50BFA5"/>
<path d="M268.347 463.293C268.347 463.293 260.483 463.39 257.811 462.503C255.14 461.616 255.465 452.792 255.465 452.792L258.061 452.545C258.061 452.545 259.002 446.474 261.01 446.156C263.019 445.84 276.227 447.871 278.971 449.581C281.716 451.29 273.159 463.877 273.159 463.877L268.347 463.293Z" fill="#3C8F7C"/>
<path d="M282.329 470.292C283.015 471.358 283.472 474.577 283.622 475.672C283.516 475.751 282.942 476.221 283.003 477.137C283.047 477.784 282.144 478.857 282.971 478.785C283.798 478.713 283.842 477.589 284.337 477.782C284.833 477.976 285.062 480.328 285.812 480.262C286.563 480.196 286.053 477.98 286.499 478.154C286.944 478.327 286.962 480.371 288.023 480.278C289.085 480.185 287.554 477.874 288.123 477.824C288.692 477.774 289.58 479.244 290.434 479.169C291.287 479.094 289.029 477.192 289.293 477.293C289.554 477.395 291.372 478.173 291.674 477.998C292.017 477.801 287.806 475.576 287.795 474.991C288.144 473.508 288.842 470.821 287.889 469.133C286.721 467.067 283.733 462.477 283.733 462.477L277.361 463.238C277.361 463.238 281.516 469.028 282.329 470.292Z" fill="#F7A491"/>
<path d="M285.041 477.346C285.355 477.275 285.616 477.167 285.842 477.043C285.865 477.018 286.663 476.641 286.458 476.029C286.32 476.403 286.162 476.819 285.041 477.346Z" fill="#F48C7F"/>
<path d="M244.293 461.566C244.293 461.566 244.457 462.081 243.604 462.876C243.056 463.385 242.891 464.423 242.32 464.2C241.748 463.976 242.607 463.068 242.076 463.124C241.545 463.18 239.504 465.018 238.985 464.815C238.466 464.612 240.613 462.94 240.138 462.99C239.663 463.04 238.024 464.672 237.291 464.385C236.557 464.098 239.554 462.555 239.161 462.402C238.768 462.249 236.927 463.246 236.337 463.015C235.748 462.784 238.974 461.713 238.695 461.743C238.417 461.772 236.417 462.031 236.323 461.831C236.22 461.606 240.396 460.946 240.871 460.479C241.346 460.014 248.527 455.368 250.58 455.365C252.633 455.362 261.846 458.492 262.515 459.508C263.183 460.525 262.351 461.605 261.008 461.744C259.664 461.886 251.076 458.783 250.653 458.827C250.231 458.871 244.293 461.566 244.293 461.566Z" fill="#F7A491"/>
<path d="M242.162 462.692C241.959 462.552 241.839 462.393 241.763 462.23C241.765 462.202 241.445 461.678 242.227 461.195C241.977 461.556 241.707 461.956 242.162 462.692Z" fill="#F48C7F"/>
<path d="M263.705 455.152C263.705 455.152 271.978 451.852 272.893 451.178C273.576 450.675 271.303 445 271.303 445C271.303 445 268.034 444.948 266.535 445.532C266.535 445.532 267.43 449.454 267.037 449.607C266.644 449.76 257.568 451.786 257.568 451.786L258.143 454.113L263.705 455.152Z" fill="#B75742"/>
<path d="M279.575 467.027C279.575 467.027 281.006 466.893 285.9 464.213L280.212 458.408L274.951 463.235L279.575 467.027Z" fill="#9BC1F9"/>
<path d="M270.347 462.933C270.347 462.933 274.086 463.352 275.394 463.673C276.704 463.995 288.821 449.673 285.766 449.167C279.385 448.111 262.82 445.32 262.82 445.32C262.82 445.32 262.342 446.15 262.943 447.661C263.984 450.277 263.641 456.114 263.421 457.135C263.292 457.735 256.225 455.999 256.225 455.999L253.439 460.525C253.439 460.525 261.506 461.903 264.216 462.34C264.972 462.462 270.347 462.933 270.347 462.933Z" fill="#9BC1F9"/>
<path d="M284.17 454.066C282.657 456.429 272.637 463.223 272.549 463.288L274.186 463.848C274.552 463.579 282.716 457.819 284.314 455.32L284.17 454.066Z" fill="#3C8F7C"/>
<path d="M262.441 449.681L261.403 450.341C261.474 450.369 268.447 453.172 268.634 456.276C268.825 459.414 263.784 462.428 263.734 462.458L265.01 463.004C265.236 462.871 270.52 459.717 270.312 456.251C270.098 452.753 262.752 449.804 262.441 449.681Z" fill="#3C8F7C"/>
<path d="M268.556 472.51C268.556 472.51 271.514 473.612 274.318 471.823C276.552 470.396 276.259 470.845 277.361 470.136C278.467 469.425 280.132 469.365 280.385 468.185C280.637 467.005 279.578 466.763 279.578 466.763C279.578 466.763 280.769 465.898 279.874 464.894C278.98 463.891 276.414 462.93 274.098 462.938C274.098 462.938 270.86 461.805 267.312 462.067C263.767 462.327 264.969 462.392 263.556 462.317C262.145 462.24 258.119 463.005 258.442 464.456C258.442 464.456 255.82 465.717 257.832 466.97C259.846 468.223 260.937 469.097 261.917 470.691C262.902 472.278 266.91 472.793 268.556 472.51Z" fill="#666666"/>
<path d="M272.517 464.362C272.517 464.362 272.84 462.265 273.274 462.09C273.708 461.915 274.324 461.619 273.854 461.09C273.385 460.56 270.822 460.744 269.597 460.966C268.421 461.179 267.591 461.65 267.591 461.65L267.465 464.99L272.517 464.362Z" fill="#F7A491"/>
<path d="M271.042 463.405C270.209 463.502 268.752 463.7 267.479 464.522L267.462 464.99L272.514 464.36C272.514 464.36 272.593 463.848 272.725 463.31C272.042 463.289 271.438 463.36 271.042 463.405Z" fill="#F48C7F"/>
<path d="M265.432 466.821C265.432 466.821 265.051 468.043 263.6 467.723C262.148 467.404 263.691 465.612 264.925 465.74C266.157 465.87 265.432 466.821 265.432 466.821Z" fill="#F7A491"/>
<path d="M269.963 471.573C269.963 471.573 272.309 471.726 273.711 470.873C275.109 470.02 276.98 467.467 275.382 465.55C273.784 463.633 271.151 463.942 270.066 464.069C268.981 464.197 266.828 464.491 265.421 466.127C264.01 467.763 263.955 471.607 269.963 471.573Z" fill="#F7A491"/>
<path d="M317.942 452.038L322.265 441.676L314.805 442.04L311.215 451.515L317.942 452.038Z" fill="#F7A491"/>
<path d="M319.221 451.733L311.213 451.515C311.213 451.515 310.614 454.289 310.48 455.616C310.312 457.225 310.374 459.307 310.767 459.271C311.867 459.174 313.362 458.911 314.298 458.333C317.529 456.332 319.221 451.733 319.221 451.733Z" fill="#5184CE"/>
<path d="M313.957 455.98C314.151 455.493 319.221 441.951 319.221 441.951C307.213 438.649 298.049 441.467 298.049 441.467C298.049 441.467 298.507 450.571 297.891 451.833C297.483 452.669 296.008 458.171 297.082 458.356C298.46 458.595 300.542 458.943 302.281 459.08C303.765 459.196 309.556 459.392 310.612 459.243C310.612 459.243 313.148 458.028 313.957 455.98Z" fill="#EAFCFC"/>
<path d="M309.653 468.9C309.653 468.9 314.509 468.937 314.107 466.92C314.107 466.92 317.719 466.215 315.312 464.581C315.312 464.581 317.881 462.824 313.409 461.137C313.409 461.137 312.221 458.777 307.157 459.905C307.157 459.905 305.659 459.345 303.585 460.095C301.512 460.845 301.242 461.29 301.242 461.29C301.242 461.29 296.659 461.725 297.29 463.841C297.29 463.841 294.882 464.871 298.518 466.164C298.518 466.164 298.451 469.065 303.366 468.673C303.366 468.672 306.236 470.886 309.653 468.9Z" fill="#3793D8"/>
<path d="M302.046 464.15C301.914 463.635 301.245 463.254 300.553 463.298C299.861 463.342 299.404 463.795 299.536 464.31C299.668 464.825 300.336 465.206 301.028 465.162C301.723 465.118 302.178 464.665 302.046 464.15Z" fill="#F7A491"/>
<path d="M313.447 462.577C313.022 462.105 312.16 461.838 311.523 461.983C310.887 462.127 310.714 462.627 311.142 463.101C311.567 463.573 312.43 463.839 313.066 463.695C313.702 463.551 313.875 463.051 313.447 462.577Z" fill="#F7A491"/>
<path d="M307.597 461.009C307.591 460.972 308.004 459.646 308.221 458.946C308.304 458.684 308.004 458.431 307.512 458.34C306.189 458.094 303.615 457.779 301.993 458.634C301.847 458.712 301.776 458.82 301.8 458.927L302.471 462.028L307.597 461.009Z" fill="#F7A491"/>
<path d="M307.996 459.673C306.591 459.382 302.536 459.635 302.231 460.916L302.471 462.027L307.597 461.009C307.594 460.991 307.873 460.077 307.996 459.673Z" fill="#F48C7F"/>
<path d="M308.908 467.326C308.908 467.326 306.77 467.558 304.729 466.923C302.688 466.287 299.375 463.785 302.146 461.612C304.917 459.437 309.62 460.503 311.28 462.224C312.934 463.945 313.638 466.509 308.908 467.326Z" fill="#F7A491"/>
<path d="M307.585 461.946L304.741 462.028C304.741 462.028 304.744 461.484 305.993 461.431C307.515 461.365 307.585 461.946 307.585 461.946Z" fill="white"/>
<path d="M312.556 466.106C312.556 466.106 310.485 466.662 308.943 466.59C307.4 466.517 302.374 464.684 301.641 464.991C300.911 465.299 301.852 466.92 302.436 467.155C303.02 467.391 305.348 468.098 305.547 468.112C305.747 468.125 307.861 468.106 308.222 468.059C308.585 468.011 311.198 467.386 311.198 467.386L312.556 466.106Z" fill="#3793D8"/>
<path d="M282.466 440.723C282.51 440.785 282.616 440.788 282.727 440.791C283.789 440.823 284.845 440.864 285.894 440.96C286.07 440.976 286.24 440.998 286.399 441.033C286.689 441.097 286.976 441.099 287.275 441.063C287.437 441.044 287.601 441.042 287.765 441.044C288.299 441.054 289.803 441.338 290.58 441.417C290.759 441.436 290.894 441.506 290.935 441.595C291.61 443.134 293.043 446.584 293.187 447.712C293.372 449.157 294.947 455.68 294.947 455.68L300.295 455.023C300.295 455.023 298.413 450.196 297.955 447.862C297.6 446.06 294.266 442.197 293.214 441.085C292.718 440.261 291.489 440.22 291.205 440.198C291.044 440.186 290.894 440.142 290.791 440.078C290.604 439.962 290.39 439.861 290.14 439.775C289.956 439.714 289.815 439.633 289.698 439.54C289.484 439.371 289.293 439.196 289.102 439.019C288.976 438.903 288.841 438.863 288.642 438.888C288.431 438.913 288.325 438.99 288.319 439.119C288.314 439.309 288.425 439.483 288.604 439.649C288.774 439.803 288.753 439.892 288.536 440.028C288.413 440.106 288.284 440.183 288.123 440.245C287.959 440.307 287.789 440.354 287.575 440.336C287.196 440.282 286.815 440.237 286.425 440.209L286.105 440.171C286.094 440.17 285.932 440.149 285.932 440.149C285.906 440.145 285.343 440.105 285.15 440.102C284.994 440.099 284.742 440.09 284.531 440.081C284.337 440.074 283.927 440.118 283.912 440.118C283.724 440.117 283.554 440.149 283.411 440.209C283.352 440.234 283.293 440.262 283.32 440.307C283.343 440.348 283.408 440.365 283.487 440.374C283.613 440.387 284.27 440.439 284.261 440.452C284.065 440.449 283.452 440.446 283.258 440.446C282.994 440.446 282.763 440.489 282.575 440.585C282.51 440.624 282.422 440.661 282.466 440.723Z" fill="#F7A491"/>
<path d="M291.375 451.757L299.125 449.876C299.125 449.876 300.342 452.732 301.251 454.497C302.031 456.016 298.169 458.715 296.885 458.346C294.005 457.519 291.375 451.757 291.375 451.757Z" fill="#5184CE"/>
<path d="M343.75 456.787L412.661 455.315C412.661 455.315 406.65 445.226 406.503 444.723C406.356 444.22 383.742 438.029 378.059 438.103C372.376 438.176 359.125 440.563 356.271 440.983C353.421 441.404 346.014 444.304 346.457 446.087C346.903 447.871 343.75 456.787 343.75 456.787Z" fill="#EEAA2B"/>
<path d="M363.579 451.668H345.09C344.633 451.668 344.263 451.854 344.263 452.083V452.885C344.263 453.115 344.633 453.3 345.09 453.3H363.579C364.036 453.3 364.406 453.115 364.406 452.885V452.083C364.406 451.855 364.036 451.668 363.579 451.668Z" fill="#EEAA2B"/>
<path d="M371.581 470.932L380.918 469.005L380.384 469.968L376.904 470.932C376.904 470.932 374.053 471.21 373.775 471.285C373.493 471.358 371.581 470.932 371.581 470.932Z" fill="#EEAA2B"/>
<path opacity="0.6" d="M416.092 458.593L343.199 461.724V459.277C343.199 457.891 345.316 456.754 347.996 456.7L412.567 455.398C414.051 455.368 415.502 455.704 416.35 456.332C417.08 456.87 417.403 457.631 416.092 458.593Z" fill="#C5DDF9"/>
<path opacity="0.7" d="M343.199 461.724V462.075L415.831 458.773L416.092 458.593L343.199 461.724Z" fill="#C5DDF9"/>
<path opacity="0.2" d="M359.984 456.457L366.626 456.323L372.08 460.484L365.623 460.76L359.984 456.457Z" fill="white"/>
<path opacity="0.2" d="M371.769 456.219L377.077 460.269L374.622 460.373L369.244 456.27L371.769 456.219Z" fill="white"/>
<path d="M244.452 456.656L327.713 456.242L328.458 443.003C328.458 443.003 318.731 435.905 317.559 435.98C316.386 436.053 291.516 438.061 289.285 437.986C287.053 437.911 267.559 442.712 266.638 442.616C265.717 442.521 259.644 444.157 259.644 444.157L249.745 447.665L239.93 452.733L244.452 456.656Z" fill="#EEAA2B"/>
<path d="M261.304 452.485H242.815C242.358 452.485 241.988 452.67 241.988 452.9V453.702C241.988 453.931 242.358 454.116 242.815 454.116H261.304C261.761 454.116 262.13 453.931 262.13 453.702V452.9C262.13 452.67 261.761 452.485 261.304 452.485Z" fill="#EEAA2B"/>
<path d="M273.622 466.258L270.74 465.98C270.74 465.98 271.016 465.437 272.291 465.541C273.845 465.667 273.622 466.258 273.622 466.258Z" fill="white"/>
<path d="M264.697 467.642C264.697 467.642 271.201 469.137 271.846 471.479C272.491 473.821 266.5 471.584 266.5 471.584L264.078 470.417L264.697 467.642Z" fill="#666666"/>
<path d="M345.562 457.082C345.562 457.082 346.773 456.663 348.304 456.692C348.304 456.692 346.269 456.38 346.208 456.405C346.149 456.43 345.123 456.844 345.137 456.853C345.155 456.86 345.562 457.082 345.562 457.082Z" fill="#EEAA2B"/>
<path d="M351.841 472.203L359.981 471.944C359.981 471.944 358.647 473.05 358.084 473.05C357.518 473.05 353.794 473.05 353.794 473.05L351.841 472.203Z" fill="#EEAA2B"/>
<path d="M679.477 410.543H19.9169C18.4477 410.543 17.2543 411.292 17.2543 412.215C17.2543 413.137 18.4477 413.886 19.9169 413.886H679.477C680.949 413.886 682.139 413.137 682.139 412.215C682.139 411.291 680.946 410.543 679.477 410.543Z" fill="#666666"/>
</g>
</svg>
