<svg width="70" height="71" viewBox="0 0 70 71" fill="none" xmlns="http://www.w3.org/2000/svg">
<path d="M44.3333 44.6534V34.0355C44.3333 32.1059 42.763 30.5355 40.8333 30.5355H8.16667C6.237 30.5355 4.66667 32.1059 4.66667 34.0355V44.6534C2.00783 45.1959 0 47.5525 0 50.3689V57.3689V69.0355C0 69.6795 0.522667 70.2022 1.16667 70.2022H5.83333C6.47733 70.2022 7 69.6795 7 69.0355V65.5355H42V69.0355C42 69.6795 42.5227 70.2022 43.1667 70.2022H47.8333C48.4773 70.2022 49 69.6795 49 69.0355V57.3689V50.3689C49 47.5525 46.9922 45.1959 44.3333 44.6534ZM7 34.0355C7 33.3927 7.52383 32.8689 8.16667 32.8689H40.8333C41.4762 32.8689 42 33.3927 42 34.0355V44.5355H39.6667V39.8689C39.6667 37.9392 38.0963 36.3689 36.1667 36.3689H29.1667C27.237 36.3689 25.6667 37.9392 25.6667 39.8689V44.5355H23.3333V39.8689C23.3333 37.9392 21.763 36.3689 19.8333 36.3689H12.8333C10.9037 36.3689 9.33333 37.9392 9.33333 39.8689V44.5355H7V34.0355ZM37.3333 39.8689V44.5355H28V39.8689C28 39.226 28.5238 38.7022 29.1667 38.7022H36.1667C36.8095 38.7022 37.3333 39.226 37.3333 39.8689ZM21 39.8689V44.5355H11.6667V39.8689C11.6667 39.226 12.1905 38.7022 12.8333 38.7022H19.8333C20.4762 38.7022 21 39.226 21 39.8689ZM46.6667 67.8689H44.3333V64.3689C44.3333 63.7249 43.8107 63.2022 43.1667 63.2022H5.83333C5.18933 63.2022 4.66667 63.7249 4.66667 64.3689V67.8689H2.33333V58.5355H46.6667V67.8689ZM46.6667 56.2022H2.33333V50.3689C2.33333 48.4392 3.90367 46.8689 5.83333 46.8689H10.5H22.1667H26.8333H38.5H43.1667C45.0963 46.8689 46.6667 48.4392 46.6667 50.3689V56.2022Z" fill="#DB6300"/>
<path d="M68.8334 44.5355H52.5C51.856 44.5355 51.3334 45.0582 51.3334 45.7022V55.0355V63.2022H53.6667V56.2022H67.6667V63.2022H70V55.0355V45.7022C70 45.0582 69.4774 44.5355 68.8334 44.5355ZM67.6667 53.8689H53.6667V46.8689H67.6667V53.8689Z" fill="#DB6300"/>
<path d="M63 49.2021H58.3334V51.5355H63V49.2021Z" fill="#DB6300"/>
<path d="M66.4404 34.8324L64.1071 27.8324C63.9473 27.3564 63.5028 27.0355 62.9999 27.0355H58.3333C57.8305 27.0355 57.386 27.3564 57.2261 27.8335L54.8928 34.8335C54.7738 35.1894 54.8345 35.5802 55.0538 35.8847C55.2731 36.1892 55.6255 36.3689 56 36.3689H59.5V39.8689H57.1666V42.2022H64.1666V39.8689H61.8333V36.3689H65.3333C65.7078 36.3689 66.0601 36.1892 66.2794 35.8835C66.4988 35.579 66.5583 35.1882 66.4404 34.8324ZM57.6181 34.0355L59.1745 29.3689H62.1599L63.7151 34.0355H57.6181Z" fill="#DB6300"/>
<path d="M69.3105 15.4703L35.4772 0.303648C35.1727 0.168315 34.8262 0.168315 34.5228 0.303648L0.6895 15.4703C0.2695 15.6593 0 16.0758 0 16.5355V30.5355H2.33333V17.2903L35 2.64748L67.6667 17.2915V30.5355H70V16.5355C70 16.0758 69.7305 15.6593 69.3105 15.4703Z" fill="#DB6300"/>
<path d="M43.0535 16.3419L40.7517 16.7292C40.8065 17.0477 40.8334 17.3744 40.8334 17.7022C40.8334 20.9187 38.2165 23.5355 35 23.5355C31.7835 23.5355 29.1667 20.9187 29.1667 17.7022C29.1667 14.4857 31.7835 11.8689 35 11.8689C35.6674 11.8689 36.323 11.9809 36.946 12.2014L37.723 10.001C36.8492 9.69186 35.9334 9.53552 35 9.53552C30.4967 9.53552 26.8334 13.1989 26.8334 17.7022C26.8334 22.2055 30.4967 25.8689 35 25.8689C39.5034 25.8689 43.1667 22.2055 43.1667 17.7022C43.1667 17.2449 43.1282 16.7875 43.0535 16.3419Z" fill="#DB6300"/>
<path d="M42.3418 9.87732L35 17.2191L33.4915 15.7106L31.8418 17.3603L34.1751 19.6936C34.4026 19.9211 34.7013 20.0355 35 20.0355C35.2986 20.0355 35.5973 19.9211 35.8248 19.6936L43.9915 11.527L42.3418 9.87732Z" fill="#DB6300"/>
</svg>
